<svg width="71" height="41" viewBox="0 0 71 41" fill="none" xmlns="http://www.w3.org/2000/svg">
<path d="M3.98498 34.8541C6.25811 34.8541 7.99802 33.1376 7.99802 30.9507V10.0216C7.99802 7.80688 6.25811 6.06279 3.98498 6.06279C1.73992 6.06279 0 7.80688 0 10.0216V30.9507C0 33.1376 1.73992 34.8541 3.98498 34.8541ZM17.315 40.9724C21.0475 40.9724 23.6574 38.5084 23.6574 35.0202V5.97973C23.6574 2.46387 21.0475 0 17.315 0C13.6107 0 11.0008 2.46387 11.0008 5.97973V35.0202C11.0008 38.5084 13.6107 40.9724 17.315 40.9724ZM26.9127 25.8291H44.3399V15.1431H26.9127V25.8291ZM53.9375 40.9724C57.67 40.9724 60.28 38.5084 60.28 35.0202V5.97973C60.28 2.46387 57.67 0 53.9375 0C50.2334 0 47.6233 2.46387 47.6233 5.97973V35.0202C47.6233 38.5084 50.2334 40.9724 53.9375 40.9724ZM66.9871 34.8541C69.2322 34.8541 71 33.1376 71 30.9507V10.0216C71 7.80688 69.2322 6.06279 66.9871 6.06279C64.7421 6.06279 63.0021 7.80688 63.0021 10.0216V30.9507C63.0021 33.1376 64.7421 34.8541 66.9871 34.8541Z" fill="#D8324A"/>
</svg>
