<svg width="34" height="34" viewBox="0 0 34 34" fill="none" xmlns="http://www.w3.org/2000/svg">
<path d="M3.3999 3.23969C2.84762 3.23969 2.3999 3.6874 2.3999 4.23969C2.3999 4.79197 2.84762 5.23969 3.3999 5.23969V3.23969ZM6.64766 4.23969L7.61289 3.97827C7.49483 3.54237 7.09927 3.23969 6.64766 3.23969V4.23969ZM11.9253 23.7263L10.96 23.9877C11.0903 24.4687 11.5548 24.7803 12.0493 24.7185L11.9253 23.7263ZM28.1641 21.6964L28.2881 22.6887C28.7128 22.6356 29.0566 22.3181 29.1433 21.899L28.1641 21.6964ZM30.5999 9.92327L31.5792 10.1259C31.6401 9.83136 31.5652 9.52506 31.3753 9.29184C31.1854 9.05863 30.9007 8.92327 30.5999 8.92327V9.92327ZM8.18697 9.92327L7.22174 10.1847L7.22174 10.1847L8.18697 9.92327ZM3.3999 5.23969H6.64766V3.23969H3.3999V5.23969ZM12.0493 24.7185L28.2881 22.6887L28.04 20.7041L11.8012 22.734L12.0493 24.7185ZM29.1433 21.899L31.5792 10.1259L29.6206 9.72066L27.1848 21.4938L29.1433 21.899ZM5.68244 4.5011L7.22174 10.1847L9.15219 9.66185L7.61289 3.97827L5.68244 4.5011ZM7.22174 10.1847L10.96 23.9877L12.8905 23.4648L9.15219 9.66185L7.22174 10.1847ZM30.5999 8.92327H8.18697V10.9233H30.5999V8.92327ZM15.9999 29.0417C15.9999 29.663 15.4962 30.1667 14.8749 30.1667V32.1667C16.6008 32.1667 17.9999 30.7675 17.9999 29.0417H15.9999ZM14.8749 30.1667C14.2536 30.1667 13.7499 29.663 13.7499 29.0417H11.7499C11.7499 30.7675 13.149 32.1667 14.8749 32.1667V30.1667ZM13.7499 29.0417C13.7499 28.4203 14.2536 27.9167 14.8749 27.9167V25.9167C13.149 25.9167 11.7499 27.3158 11.7499 29.0417H13.7499ZM14.8749 27.9167C15.4962 27.9167 15.9999 28.4203 15.9999 29.0417H17.9999C17.9999 27.3158 16.6008 25.9167 14.8749 25.9167V27.9167ZM27.3332 29.0417C27.3332 29.663 26.8296 30.1667 26.2082 30.1667V32.1667C27.9341 32.1667 29.3332 30.7675 29.3332 29.0417H27.3332ZM26.2082 30.1667C25.5869 30.1667 25.0832 29.663 25.0832 29.0417H23.0832C23.0832 30.7675 24.4823 32.1667 26.2082 32.1667V30.1667ZM25.0832 29.0417C25.0832 28.4203 25.5869 27.9167 26.2082 27.9167V25.9167C24.4823 25.9167 23.0832 27.3158 23.0832 29.0417H25.0832ZM26.2082 27.9167C26.8296 27.9167 27.3332 28.4203 27.3332 29.0417H29.3332C29.3332 27.3158 27.9341 25.9167 26.2082 25.9167V27.9167Z" fill="black"/>
</svg>
