<svg width="30" height="30" viewBox="0 0 30 30" fill="none" xmlns="http://www.w3.org/2000/svg">
<circle cx="15" cy="15" r="15" fill="#FFB552"/>
<path fill-rule="evenodd" clip-rule="evenodd" d="M9.48535 12.4671C9.48535 9.57374 11.9536 7.22452 14.9958 7.22452C18.0381 7.22452 20.5063 9.57374 20.5063 12.4671C20.5063 15.799 16.8326 21.073 15.4837 22.8945C15.4277 22.9714 15.3543 23.034 15.2696 23.0772C15.1848 23.1204 15.091 23.1429 14.9958 23.1429C14.9007 23.1429 14.8069 23.1204 14.7221 23.0772C14.6373 23.034 14.5639 22.9714 14.5079 22.8945C13.159 21.0722 9.48535 15.7964 9.48535 12.4671ZM17.0226 12.7618C17.0226 13.7762 16.2002 14.5986 15.1858 14.5986C14.1713 14.5986 13.349 13.7762 13.349 12.7618C13.349 11.7474 14.1713 10.925 15.1858 10.925C16.2002 10.925 17.0226 11.7474 17.0226 12.7618Z" fill="white"/>
</svg>
